<svg width="12" height="12" viewBox="0 0 12 12" fill="none" xmlns="http://www.w3.org/2000/svg">
<g id="ep:arrow-up">
<path id="Vector" d="M6.27135 7.96497L10.2539 3.78522C10.3203 3.71548 10.3574 3.62283 10.3574 3.52647C10.3574 3.43012 10.3203 3.33747 10.2539 3.26772L10.2494 3.26322C10.2171 3.2293 10.1783 3.20228 10.1353 3.18382C10.0923 3.16536 10.046 3.15584 9.99923 3.15584C9.95243 3.15584 9.90613 3.16536 9.86313 3.18382C9.82013 3.20228 9.78133 3.2293 9.7491 3.26322L5.9991 7.19922L2.2506 3.26322C2.21837 3.2293 2.17958 3.20228 2.13658 3.18382C2.09358 3.16536 2.04727 3.15584 2.00048 3.15584C1.95368 3.15584 1.90738 3.16536 1.86438 3.18382C1.82138 3.20228 1.78258 3.2293 1.75035 3.26322L1.74585 3.26772C1.67937 3.33746 1.64228 3.43012 1.64228 3.52647C1.64228 3.62283 1.67937 3.71548 1.74585 3.78522L5.72835 7.96497C5.76337 8.00173 5.8055 8.031 5.85217 8.05099C5.89883 8.07099 5.94908 8.0813 5.99985 8.0813C6.05062 8.0813 6.10087 8.07099 6.14754 8.05099C6.19421 8.031 6.23633 8.00173 6.27135 7.96497Z" fill="#434343"/>
</g>
</svg>
