<svg width="16" height="16" viewBox="0 0 16 16" fill="none" xmlns="http://www.w3.org/2000/svg">
<g clip-path="url(#clip0_8_168)">
<path d="M7.25979 8.73193C7.23024 8.72546 7.19976 8.72442 7.16984 8.72884C6.86934 8.69387 6.64265 8.43963 6.64213 8.13719C6.64213 8.06759 6.61448 8.00083 6.56526 7.95161C6.51604 7.90239 6.44928 7.87474 6.37968 7.87474C6.31007 7.87474 6.24332 7.90239 6.1941 7.95161C6.14488 8.00083 6.11723 8.06759 6.11723 8.13719C6.11802 8.6422 6.45579 9.08459 6.94276 9.21824V9.48069C6.94276 9.55029 6.97041 9.61704 7.01963 9.66626C7.06884 9.71548 7.1356 9.74313 7.2052 9.74313C7.27481 9.74313 7.34156 9.71548 7.39078 9.66626C7.44 9.61704 7.46765 9.55029 7.46765 9.48069V9.23412C8.02971 9.11648 8.4117 8.59299 8.35265 8.02185C8.29344 7.4507 7.81224 7.01668 7.23801 7.01655C6.90894 7.01655 6.64213 6.74974 6.64213 6.42066C6.64213 6.09159 6.90894 5.82478 7.23801 5.82478C7.56708 5.82478 7.83389 6.09155 7.83389 6.42066C7.83389 6.49027 7.86154 6.55702 7.91076 6.60624C7.95998 6.65546 8.02674 6.68311 8.09634 6.68311C8.16595 6.68311 8.2327 6.65546 8.28192 6.60624C8.33114 6.55702 8.35879 6.49027 8.35879 6.42066C8.35803 5.89039 7.98654 5.43301 7.46765 5.32357V5.08471C7.46765 5.01511 7.44 4.94835 7.39078 4.89913C7.34156 4.84992 7.27481 4.82227 7.2052 4.82227C7.1356 4.82227 7.06884 4.84992 7.01963 4.89913C6.97041 4.94835 6.94276 5.01511 6.94276 5.08471V5.33961C6.4012 5.48747 6.05264 6.01328 6.12721 6.5697C6.20177 7.12612 6.6766 7.5414 7.23801 7.54131C7.56275 7.54131 7.82763 7.80132 7.8335 8.12591C7.83954 8.45052 7.58428 8.72012 7.25979 8.73193Z" fill="black"/>
<path d="M3.42969 7.2989C3.42969 9.40076 5.13355 11.1046 7.23542 11.1046C9.33729 11.1046 11.0412 9.40076 11.0412 7.2989C11.0412 5.19703 9.33729 3.49316 7.23542 3.49316C5.13457 3.49546 3.43215 5.19805 3.42969 7.2989ZM7.23542 4.01806C9.04741 4.01806 10.5163 5.4869 10.5163 7.2989C10.5163 9.11089 9.04741 10.5797 7.23542 10.5797C5.42343 10.5797 3.95458 9.11089 3.95458 7.2989C3.95665 5.48779 5.42431 4.02012 7.23542 4.01806Z" fill="black"/>
<path d="M12.3351 11.752L10.2792 12.7234C10.1397 12.464 9.93431 12.246 9.68367 12.0913C9.43303 11.9366 9.14604 11.8508 8.85164 11.8425L6.95376 11.7903C6.65317 11.7817 6.35837 11.7056 6.0912 11.5676L5.8981 11.4676C5.41091 11.2136 4.86953 11.0813 4.32013 11.0819C3.77074 11.0825 3.22963 11.2159 2.74297 11.4709L2.75501 11.0334C2.75597 10.9989 2.75013 10.9646 2.73783 10.9324C2.72552 10.9002 2.70699 10.8707 2.6833 10.8457C2.65961 10.8207 2.63122 10.8005 2.59975 10.7865C2.56827 10.7724 2.53434 10.7647 2.49988 10.7637L0.418751 10.7065C0.384298 10.7055 0.349996 10.7114 0.317803 10.7237C0.285611 10.736 0.256159 10.7545 0.231132 10.7782C0.206104 10.8019 0.185991 10.8303 0.171942 10.8618C0.157892 10.8933 0.150182 10.9272 0.149251 10.9617L0.0235395 15.5285C0.0225785 15.563 0.0284171 15.5973 0.0407217 15.6295C0.0530264 15.6617 0.0715559 15.6912 0.0952518 15.7162C0.118948 15.7413 0.147345 15.7614 0.178822 15.7754C0.2103 15.7895 0.244239 15.7972 0.278703 15.7982L2.3598 15.8555H2.36699C2.43537 15.8555 2.50106 15.8288 2.55008 15.7811C2.5991 15.7335 2.62757 15.6685 2.62943 15.6002L2.63544 15.3817L3.17608 15.0922C3.3882 14.978 3.63644 14.9508 3.86825 15.0164L7.09679 15.9226C7.10244 15.9243 7.10805 15.9255 7.11385 15.9268C7.3472 15.9756 7.58498 16.0002 7.82338 16C8.32829 16.0003 8.8273 15.8914 9.28619 15.6808C9.29747 15.6756 9.30835 15.6696 9.31873 15.6628L13.9999 12.635C14.056 12.5986 14.0962 12.5422 14.1122 12.4772C14.1282 12.4122 14.1187 12.3436 14.0858 12.2854C13.7383 11.6687 12.9675 11.4338 12.3351 11.752ZM0.555485 15.2807L0.666697 11.2384L2.22307 11.2812L2.11186 15.3236L0.555485 15.2807ZM9.04975 15.212C8.47961 15.4693 7.84289 15.5404 7.23005 15.4151L4.01023 14.5113C3.64793 14.4089 3.26001 14.4513 2.92839 14.6296L2.6521 14.7776L2.72605 12.0899C3.15588 11.8041 3.65456 11.6387 4.17005 11.6112C4.68555 11.5837 5.19898 11.6951 5.65678 11.9336L5.84991 12.0337C6.1874 12.2079 6.55973 12.3041 6.93939 12.3151L8.8374 12.3673C9.3705 12.3826 9.82325 12.7622 9.93141 13.2845L7.10434 13.2065C6.9594 13.2026 6.83881 13.3168 6.83471 13.4617C6.8328 13.5312 6.85861 13.5987 6.90646 13.6493C6.95431 13.6999 7.02028 13.7294 7.08987 13.7313L10.2097 13.8171H10.217C10.2854 13.8171 10.351 13.7904 10.4 13.7427C10.4489 13.695 10.4774 13.6302 10.4792 13.5618C10.4825 13.4478 10.474 13.3337 10.4539 13.2214L12.5625 12.225C12.5646 12.2241 12.5666 12.2231 12.5687 12.2221C12.7147 12.1482 12.8799 12.1207 13.042 12.1434C13.2041 12.1661 13.3553 12.2379 13.4755 12.3491L9.04975 15.212ZM7.49801 2.75569V0.262446C7.49801 0.192841 7.47036 0.126087 7.42114 0.0768687C7.37192 0.0276505 7.30517 0 7.23556 0C7.16596 0 7.0992 0.0276505 7.04998 0.0768687C7.00077 0.126087 6.97312 0.192841 6.97312 0.262446V2.75569C6.97312 2.82529 7.00077 2.89204 7.04998 2.94126C7.0992 2.99048 7.16596 3.01813 7.23556 3.01813C7.30517 3.01813 7.37192 2.99048 7.42114 2.94126C7.47036 2.89204 7.49801 2.82529 7.49801 2.75569ZM9.46635 2.75569V1.57468C9.46635 1.50507 9.4387 1.43832 9.38949 1.3891C9.34027 1.33988 9.27351 1.31223 9.20391 1.31223C9.1343 1.31223 9.06755 1.33988 9.01833 1.3891C8.96911 1.43832 8.94146 1.50507 8.94146 1.57468V2.75569C8.94146 2.82529 8.96911 2.89204 9.01833 2.94126C9.06755 2.99048 9.1343 3.01813 9.20391 3.01813C9.27351 3.01813 9.34027 2.99048 9.38949 2.94126C9.4387 2.89204 9.46635 2.82529 9.46635 2.75569ZM5.52966 2.75569V1.57468C5.52966 1.50507 5.50201 1.43832 5.45279 1.3891C5.40357 1.33988 5.33682 1.31223 5.26722 1.31223C5.19761 1.31223 5.13086 1.33988 5.08164 1.3891C5.03242 1.43832 5.00477 1.50507 5.00477 1.57468V2.75569C5.00477 2.82529 5.03242 2.89204 5.08164 2.94126C5.13086 2.99048 5.19761 3.01813 5.26722 3.01813C5.33682 3.01813 5.40357 2.99048 5.45279 2.94126C5.50201 2.89204 5.52966 2.82529 5.52966 2.75569Z" fill="black"/>
</g>
<defs>
<clipPath id="clip0_8_168">
<rect width="16" height="16" fill="white"/>
</clipPath>
</defs>
</svg>
