<svg width="26" height="24" viewBox="0 0 26 24" fill="none" xmlns="http://www.w3.org/2000/svg">
<g id="Group">
<path id="Vector" fill-rule="evenodd" clip-rule="evenodd" d="M16.4462 16.5383C16.4123 16.4791 16.4033 16.4088 16.4211 16.3429C16.4389 16.277 16.4821 16.2208 16.5412 16.1867C16.6004 16.1528 16.6706 16.1438 16.7364 16.1615C16.8023 16.1793 16.8584 16.2223 16.8926 16.2813L17.8786 17.9927L20.3796 14.0923C20.3977 14.0635 20.4213 14.0385 20.4491 14.0188C20.4769 13.9991 20.5084 13.9851 20.5416 13.9777C20.5749 13.9702 20.6093 13.9694 20.6428 13.9754C20.6764 13.9813 20.7084 13.9939 20.7371 14.0123C20.7658 14.0307 20.7905 14.0546 20.8099 14.0826C20.8293 14.1106 20.8429 14.1422 20.85 14.1756C20.8571 14.2089 20.8575 14.2433 20.8512 14.2768C20.8448 14.3103 20.832 14.3422 20.8132 14.3707L18.0839 18.6283V18.6277C18.06 18.665 18.027 18.6955 17.9879 18.7163C17.9487 18.7371 17.9049 18.7475 17.8606 18.7464C17.8163 18.7453 17.7731 18.7327 17.7351 18.71C17.697 18.6873 17.6655 18.6551 17.6436 18.6167L16.4462 16.5383ZM15.4442 14.0117L15.5532 14.6833L15.6622 15.3547L15.2686 15.2057C15.186 15.5068 15.1447 15.8178 15.1459 16.13C15.1454 16.5898 15.2357 17.0452 15.4117 17.4701C15.5876 17.8949 15.8458 18.2808 16.1712 18.6057C16.4961 18.9312 16.882 19.1894 17.3069 19.3654C17.7318 19.5413 18.1873 19.6316 18.6472 19.631C19.1955 19.6323 19.7362 19.5042 20.2256 19.257C20.7164 19.0087 21.1421 18.6486 21.4682 18.2057C21.5102 18.1548 21.5701 18.1219 21.6355 18.1137C21.701 18.1055 21.7671 18.1227 21.8203 18.1617C21.8735 18.2007 21.9098 18.2586 21.9217 18.3235C21.9335 18.3884 21.9202 18.4553 21.8842 18.5107C21.51 19.0192 21.0214 19.4326 20.4579 19.7173C19.8968 20.0014 19.2765 20.1491 18.6476 20.1483C17.5386 20.1483 16.5336 19.6983 15.8062 18.9713C15.4325 18.5987 15.1362 18.1559 14.9342 17.6683C14.7322 17.1808 14.6285 16.6581 14.6292 16.1303C14.6297 15.7554 14.6819 15.3823 14.7846 15.0217L14.3909 14.8723L14.9176 14.4423L15.4442 14.0117ZM18.5276 9.83833V5.50133L9.54157 9.4V20.3327L12.4879 19.1563L13.0106 18.9473L12.9676 18.872L12.2449 19.066C12.1832 19.0825 12.1176 19.0756 12.0607 19.0464C12.0039 19.0173 11.9599 18.9681 11.9372 18.9083C11.8159 18.6158 11.7139 18.3156 11.6319 18.0097C11.5496 17.7006 11.4876 17.3865 11.4466 17.0693C11.439 17.0076 11.4539 16.9452 11.4886 16.8935C11.5233 16.8419 11.5755 16.8046 11.6356 16.7883V16.788L12.3559 16.5947V15.6653L11.6356 15.472C11.572 15.4551 11.5173 15.4146 11.4826 15.3587C11.4479 15.3028 11.4358 15.2358 11.4489 15.1713C11.4906 14.855 11.5519 14.547 11.6309 14.2503C11.7142 13.9403 11.8176 13.6373 11.9392 13.3443C11.9632 13.2866 12.0074 13.2395 12.0635 13.2118C12.1196 13.1842 12.1838 13.1778 12.2442 13.194L12.9669 13.388L13.4322 12.5827L12.9039 12.0543C12.8599 12.0101 12.8334 11.9515 12.8293 11.8892C12.8251 11.827 12.8435 11.7654 12.8812 11.7157C13.0755 11.4621 13.286 11.2215 13.5116 10.9953C13.738 10.7698 13.9786 10.5591 14.2319 10.3643C14.2817 10.3266 14.3434 10.3081 14.4056 10.3123C14.4679 10.3165 14.5266 10.343 14.5709 10.387L14.5716 10.3867L15.0992 10.915L15.9039 10.45L15.7106 9.72733C15.694 9.66567 15.7009 9.60006 15.7298 9.54313C15.7587 9.48621 15.8077 9.442 15.8672 9.419C16.1582 9.299 16.4582 9.196 16.7659 9.114C17.0689 9.033 17.3829 8.97067 17.7066 8.92867C17.7683 8.92091 17.8308 8.93578 17.8825 8.97052C17.9341 9.00527 17.9715 9.05753 17.9876 9.11767H17.9882L18.1809 9.83733H18.5276V9.83833ZM18.1396 5.10867L15.2186 3.84167L13.1486 4.88533L13.1426 4.88833L7.2159 7.874L7.20957 7.877L7.0989 7.93267L9.28724 8.94967L18.1396 5.10867ZM14.6036 3.575L11.7152 2.322L3.37324 6.52467V10.3657L6.24924 11.7017V7.94233C6.24924 7.83467 6.3149 7.74133 6.4089 7.70267L6.98424 7.41333L12.9109 4.42767L14.6036 3.575ZM11.0989 2.05467L9.28724 1.269L1.0209 5.109L3.07157 6.062C3.08563 6.05932 3.09992 6.05798 3.11424 6.058L3.15224 6.05833L5.66157 4.79433L5.66324 4.79333L11.0989 2.05467ZM0.667236 5.51333V16.8157L9.02457 20.324V9.396L6.7659 8.34667V12.1067H6.76524C6.7653 12.15 6.75445 12.1926 6.73367 12.2306C6.71289 12.2685 6.68287 12.3007 6.64638 12.324C6.60989 12.3473 6.56811 12.361 6.52491 12.3638C6.4817 12.3667 6.43848 12.3586 6.39924 12.3403L3.02257 10.772C2.97366 10.7531 2.93161 10.7198 2.90193 10.6766C2.87225 10.6333 2.85632 10.5821 2.85624 10.5297V6.53L0.667236 5.51333ZM13.1706 19.4377L13.1609 19.4417L9.42924 20.932C9.38636 20.962 9.33521 20.9778 9.2829 20.9773C9.23074 20.9776 9.17977 20.9617 9.1369 20.932L0.316569 17.2293C0.267598 17.2106 0.225448 17.1775 0.19569 17.1344C0.165932 17.0912 0.149966 17.0401 0.149902 16.9877L0.150235 5.10867V5.107L0.150902 5.10433V5.094L0.151236 5.09V5.08567L0.151902 5.08067C0.152954 5.06875 0.15496 5.05693 0.157902 5.04533L0.158569 5.04333L0.158902 5.04133L0.161902 5.03233V5.03133L0.162902 5.028L0.166902 5.02033V5.01933L0.168235 5.01633L0.169236 5.013L0.169902 5.01167L0.171569 5.00733L0.173569 5.00333L0.174902 5.001L0.175569 4.999L0.177236 4.99533V4.99467L0.179569 4.991L0.180236 4.98867L0.181236 4.98733L0.182902 4.983L0.185569 4.97867L0.186569 4.97667L0.187569 4.975L0.190235 4.971L0.192569 4.967L0.193236 4.96567L0.194902 4.963L0.200569 4.956V4.95533L0.202902 4.95233L0.204569 4.94967L0.205902 4.94867L0.208235 4.945H0.208902L0.211236 4.941L0.212569 4.94L0.214236 4.93733L0.216569 4.935L0.217236 4.93433L0.223235 4.92767H0.223902L0.224902 4.92567L0.226902 4.92433L0.229902 4.92067H0.230569L0.233569 4.91767L0.234902 4.917L0.237236 4.91433L0.238902 4.91267L0.240569 4.91133L0.243569 4.90833L0.247236 4.90533L0.248569 4.904L0.250902 4.902L0.253236 4.9L0.254902 4.89933L0.258569 4.89633L0.262236 4.894L0.263569 4.89333L0.266569 4.891L0.268902 4.88967L0.269902 4.88833L0.273569 4.886H0.273902L0.278235 4.88333L0.278902 4.883L0.282569 4.881L0.284236 4.87967L0.286569 4.87833L0.289569 4.87667H0.290569L0.299236 4.87233L9.17324 0.749334L9.1739 0.750001C9.20665 0.73492 9.2422 0.726862 9.27825 0.726345C9.3143 0.725828 9.35007 0.732865 9.38323 0.747001L11.7906 1.792C11.8017 1.79587 11.8126 1.80043 11.8232 1.80567L15.2956 3.31233C15.3062 3.31601 15.3166 3.32047 15.3266 3.32567L18.8632 4.86033C18.9154 4.87705 18.9608 4.90988 18.9931 4.95408C19.0254 4.99829 19.0428 5.05159 19.0429 5.10633V9.83567H19.1112L19.3039 9.116C19.3207 9.05245 19.3612 8.99772 19.417 8.96302C19.4728 8.92831 19.5398 8.91626 19.6042 8.92933C20.2323 9.01163 20.8467 9.17662 21.4316 9.42C21.5526 9.47033 21.6149 9.60167 21.5819 9.725L21.5822 9.72533L21.3882 10.448L22.1929 10.913L22.7209 10.3847C22.7673 10.3382 22.8297 10.3111 22.8953 10.309C22.961 10.3069 23.025 10.3299 23.0742 10.3733C23.3222 10.5647 23.5576 10.7717 23.7789 10.9927L23.7799 10.994C24.0057 11.2195 24.2164 11.4597 24.4106 11.713C24.4494 11.7638 24.468 11.8273 24.4627 11.891C24.4574 11.9548 24.4286 12.0143 24.3819 12.058L23.8609 12.58L24.3256 13.3853L25.0482 13.1913C25.1099 13.1748 25.1754 13.1816 25.2323 13.2106C25.2891 13.2397 25.3332 13.2887 25.3559 13.3483C25.4766 13.6397 25.5786 13.9393 25.6612 14.247C25.7419 14.5503 25.8042 14.864 25.8462 15.1873C25.8542 15.2491 25.8394 15.3117 25.8047 15.3634C25.7699 15.4151 25.7175 15.4524 25.6572 15.4683L25.6579 15.4693L24.9369 15.6627V16.5923L25.6579 16.7857C25.7212 16.8027 25.7757 16.8432 25.8102 16.8989C25.8448 16.9546 25.8568 17.0214 25.8439 17.0857C25.7616 17.7137 25.5968 18.3281 25.3536 18.913C25.3296 18.9708 25.2854 19.0178 25.2293 19.0454C25.1732 19.073 25.109 19.0793 25.0486 19.063V19.0637L24.3259 18.8697L23.8612 19.6753L24.3896 20.204C24.4809 20.2957 24.4886 20.4407 24.4112 20.5417C24.0226 21.0496 23.5683 21.5042 23.0602 21.8927C23.0106 21.9306 22.9489 21.9492 22.8865 21.9451C22.8242 21.941 22.7655 21.9144 22.7212 21.8703V21.871L22.1932 21.343L21.3886 21.808L21.5826 22.531C21.5989 22.5926 21.5919 22.658 21.5629 22.7147C21.5338 22.7714 21.4848 22.8153 21.4252 22.838C20.8367 23.0826 20.2181 23.2475 19.5859 23.3283C19.5241 23.3363 19.4615 23.3215 19.4098 23.2868C19.3581 23.252 19.3208 23.1996 19.3049 23.1393V23.14L19.1122 22.4203H18.1816L17.9889 23.14C17.9718 23.2035 17.9312 23.2581 17.8753 23.2927C17.8194 23.3273 17.7524 23.3394 17.6879 23.3263C17.0599 23.244 16.4456 23.0789 15.8609 22.8353C15.8032 22.8114 15.7561 22.7673 15.7284 22.7113C15.7008 22.6552 15.6944 22.591 15.7106 22.5307L15.7109 22.5313L15.9042 21.8083L15.1002 21.345L14.5726 21.873C14.5259 21.9193 14.4634 21.9462 14.3977 21.9482C14.332 21.9503 14.268 21.9273 14.2186 21.884C13.9707 21.6927 13.7353 21.4858 13.5139 21.2643L13.5129 21.2633C13.2871 21.0376 13.0763 20.7973 12.8819 20.544C12.8432 20.4931 12.8247 20.4297 12.8301 20.3659C12.8354 20.3022 12.8642 20.2427 12.9109 20.199L13.4329 19.678L13.2712 19.3977L13.1706 19.4377ZM16.0799 13.749C16.0332 13.7991 15.9685 13.8286 15.9 13.831C15.8315 13.8335 15.7649 13.8086 15.7147 13.7618C15.6646 13.7151 15.6351 13.6504 15.6327 13.5819C15.6303 13.5134 15.6552 13.4468 15.7019 13.3967C16.0787 12.9912 16.5348 12.6675 17.0419 12.4457C17.5481 12.2248 18.0946 12.111 18.6469 12.1113C19.1746 12.1108 19.6973 12.2144 20.1849 12.4164C20.6725 12.6183 21.1154 12.9145 21.4882 13.288C21.8619 13.6607 22.1583 14.1036 22.3603 14.5912C22.5623 15.0788 22.6659 15.6015 22.6652 16.1293C22.665 16.3606 22.6451 16.5915 22.6056 16.8193L23.0079 16.9423L22.5102 17.4067L22.0129 17.8703L21.8596 17.208L21.7069 16.5453L22.1082 16.6677L22.1099 16.6543C22.1356 16.4806 22.1484 16.3053 22.1482 16.1297C22.1489 15.6698 22.0587 15.2142 21.8828 14.7893C21.7068 14.3644 21.4486 13.9784 21.1229 13.6537C20.7981 13.3281 20.4122 13.07 19.9874 12.894C19.5625 12.7181 19.1071 12.6278 18.6472 12.6283C18.1482 12.6283 17.6752 12.732 17.2479 12.918C16.8055 13.1117 16.4079 13.3946 16.0799 13.749ZM12.8712 15.467V16.7747C12.8753 16.8345 12.8586 16.8938 12.8238 16.9426C12.789 16.9914 12.7384 17.0267 12.6806 17.0423L11.9909 17.2273C12.0628 17.6643 12.1775 18.0931 12.3332 18.5077L13.0252 18.3227V18.3233C13.1349 18.294 13.2552 18.34 13.3146 18.4433L13.9702 19.5797C14.0025 19.629 14.0168 19.6879 14.0107 19.7466C14.0047 19.8052 13.9786 19.86 13.9369 19.9017L13.4316 20.4073C13.7126 20.7499 14.0267 21.0639 14.3692 21.345L14.8742 20.84L14.8749 20.8407C14.915 20.8008 14.9671 20.7751 15.0231 20.7677C15.0792 20.7603 15.1362 20.7715 15.1852 20.7997L16.3169 21.4533C16.3712 21.4792 16.4146 21.5233 16.4398 21.5779C16.4649 21.6326 16.4702 21.6943 16.4546 21.7523L16.2696 22.4437C16.4756 22.521 16.6862 22.5893 16.9012 22.6463C17.1156 22.704 17.3316 22.7507 17.5499 22.7867L17.7309 22.111C17.7432 22.0528 17.775 22.0006 17.8211 21.9631C17.8672 21.9255 17.9248 21.9049 17.9842 21.9047L18.6479 21.905H19.3106C19.4252 21.905 19.5289 21.9813 19.5599 22.0967L19.7449 22.7863C20.182 22.7143 20.6109 22.5996 21.0256 22.4437L20.8402 21.7523H20.8409C20.8264 21.6975 20.8303 21.6395 20.8521 21.5871C20.8738 21.5348 20.9122 21.4911 20.9612 21.4627L22.0892 20.8117C22.139 20.7766 22.1995 20.7603 22.2601 20.7654C22.3207 20.7706 22.3775 20.797 22.4206 20.84L22.9259 21.345C23.0956 21.2057 23.2592 21.0563 23.4166 20.8987C23.5749 20.7413 23.7232 20.577 23.8629 20.4073L23.3579 19.902C23.3181 19.8619 23.2928 19.8099 23.2854 19.7539C23.278 19.6979 23.2892 19.641 23.3172 19.592L23.9706 18.46C23.9966 18.4058 24.0407 18.3624 24.0953 18.3373C24.1499 18.3122 24.2115 18.3069 24.2696 18.3223L24.9612 18.5083C25.0389 18.3023 25.1066 18.0913 25.1639 17.8763C25.2216 17.6623 25.2682 17.4457 25.3039 17.2273L24.6139 17.0427V17.042C24.5591 17.0273 24.5107 16.9949 24.4762 16.9499C24.4417 16.9049 24.4229 16.8497 24.4229 16.793V15.4863C24.4186 15.4264 24.4352 15.3668 24.47 15.3178C24.5048 15.2688 24.5556 15.2334 24.6136 15.2177L25.3039 15.033C25.2316 14.5959 25.1169 14.1668 24.9612 13.752L24.2699 13.9373C24.215 13.952 24.1568 13.9478 24.1044 13.926C24.0519 13.9041 24.0082 13.8656 23.9799 13.8163L23.3242 12.681C23.2921 12.6314 23.2778 12.5724 23.2839 12.5136C23.29 12.4549 23.316 12.3999 23.3576 12.358L23.8629 11.8527C23.5816 11.5103 23.2676 11.1963 22.9252 10.915L22.4202 11.42L22.4196 11.4193C22.3396 11.4993 22.2122 11.5193 22.1092 11.4603L20.9776 10.807C20.9233 10.7809 20.8798 10.7367 20.8547 10.682C20.8296 10.6273 20.8243 10.5655 20.8399 10.5073L21.0252 9.81667C20.818 9.73836 20.6069 9.6705 20.3929 9.61333C20.1791 9.55625 19.9626 9.50953 19.7442 9.47333L19.5632 10.149C19.5512 10.2073 19.5194 10.2596 19.4732 10.2971C19.4271 10.3346 19.3694 10.3551 19.3099 10.355H17.9836C17.9267 10.3549 17.8715 10.3361 17.8264 10.3014C17.7814 10.2668 17.749 10.2182 17.7342 10.1633L17.5502 9.47333C17.1129 9.5446 16.6838 9.6594 16.2692 9.816L16.4549 10.5073H16.4536C16.4683 10.5622 16.4645 10.6203 16.4427 10.6728C16.4208 10.7252 16.3822 10.7689 16.3329 10.797L15.2052 11.4483C15.1553 11.4832 15.0948 11.4994 15.0341 11.4941C14.9735 11.4888 14.9167 11.4623 14.8736 11.4193L14.3689 10.915C14.0265 11.1961 13.7124 11.51 13.4312 11.8523L13.9366 12.3577V12.3583C14.0166 12.4383 14.0359 12.565 13.9769 12.6677L13.3242 13.7997C13.298 13.8539 13.2537 13.8972 13.1989 13.9223C13.1442 13.9474 13.0824 13.9526 13.0242 13.937L12.3329 13.7523C12.2547 13.9591 12.1869 14.1697 12.1299 14.3833C12.0729 14.5973 12.0261 14.8139 11.9899 15.0323L12.6799 15.2173V15.218C12.7348 15.2326 12.7833 15.265 12.8179 15.31C12.8525 15.355 12.8712 15.4102 12.8712 15.467Z" fill="white"/>
</g>
</svg>
