<svg width="32" height="28" viewBox="0 0 32 28" fill="none" xmlns="http://www.w3.org/2000/svg">
<g id="Group">
<path id="Vector" d="M25.9691 14.1427V6.22548C25.9691 6.12473 25.9387 6.02633 25.8818 5.94317C25.8249 5.86002 25.7442 5.79599 25.6503 5.75948L13.1813 0.91123C13.0648 0.865853 12.9354 0.865853 12.8189 0.91123L0.350062 5.75948C0.256158 5.79599 0.175474 5.86002 0.118584 5.94317C0.0616944 6.02633 0.0312533 6.12473 0.03125 6.22548V20.6234C0.0312533 20.7241 0.0616944 20.8225 0.118584 20.9057C0.175474 20.9888 0.256158 21.0528 0.350062 21.0894L12.8189 25.9376C12.9355 25.983 13.0648 25.983 13.1813 25.9376L19.6109 23.4377C20.6617 25.6162 22.8927 27.123 25.4691 27.123C29.053 27.123 31.9687 24.2073 31.9687 20.6234C31.9688 17.2076 29.3203 14.3989 25.9691 14.1427ZM13.0001 10.5373L10.2521 9.46879C13.9486 8.03167 17.6449 6.59436 21.3413 5.15698L24.0894 6.22548L13.0001 10.5373ZM6.03856 7.83042L17.1275 3.51848L19.9617 4.62048C16.2652 6.05786 12.5689 7.49523 8.87244 8.93229L6.03856 7.83042ZM5.15894 8.56129L8.37244 9.81079V12.2069L6.99844 11.0365C6.93421 10.9818 6.85719 10.9443 6.77454 10.9274C6.6919 10.9104 6.60631 10.9147 6.52575 10.9397L5.159 11.3648L5.15894 8.56129ZM13.0001 1.91367L15.7478 2.98204L4.65894 7.29398L1.91094 6.22548L13.0001 1.91367ZM1.03125 6.95636L4.15894 8.17248V11.8191C4.15894 12.0301 4.26025 12.2307 4.42987 12.3555C4.51403 12.4171 4.61143 12.4581 4.7143 12.4754C4.81716 12.4926 4.92263 12.4855 5.02225 12.4546L6.55975 11.9765L8.27512 13.4375C8.37195 13.5198 8.49027 13.5728 8.61618 13.5901C8.74208 13.6075 8.87032 13.5885 8.98581 13.5355C9.10112 13.482 9.19877 13.3966 9.26727 13.2896C9.33576 13.1825 9.37227 13.058 9.3725 12.9309V10.1997L12.5002 11.4158V24.7407L1.03125 20.2814V6.95636ZM13.5001 24.7408V11.4158L24.9691 6.95636V14.1427C21.6179 14.3989 18.9695 17.2077 18.9695 20.6234C18.9695 21.2778 19.0671 21.9097 19.2478 22.5059L13.5001 24.7408ZM25.4691 26.123C22.4366 26.123 19.9695 23.6559 19.9695 20.6234C19.9695 17.5908 22.4366 15.1237 25.4691 15.1237C28.5016 15.1237 30.9688 17.5909 30.9688 20.6234C30.9688 23.6559 28.5016 26.123 25.4691 26.123ZM29.3242 17.5338C29.0655 17.2751 28.7216 17.1327 28.3557 17.1327C27.9899 17.1327 27.646 17.2751 27.3872 17.5338L24.2296 20.6915L23.3654 19.6039C23.1043 19.2755 22.7137 19.0872 22.2939 19.0872C21.9849 19.0877 21.6852 19.1924 21.4431 19.3844C21.3021 19.4958 21.1846 19.6341 21.0975 19.7913C21.0103 19.9485 20.9552 20.1214 20.9352 20.3C20.9144 20.4785 20.9291 20.6593 20.9786 20.8321C21.028 21.0049 21.1113 21.1661 21.2235 21.3065L22.9998 23.5417C23.1269 23.7188 23.2943 23.863 23.4883 23.9626C23.6822 24.0621 23.8971 24.114 24.1151 24.114C24.4801 24.114 24.8234 23.9716 25.0821 23.713L29.3243 19.4707C29.8582 18.9367 29.8582 18.0678 29.3242 17.5338ZM28.6171 18.7637L24.3749 23.0059C24.3411 23.0405 24.3006 23.0678 24.256 23.0864C24.2113 23.105 24.1634 23.1144 24.115 23.1141C24.055 23.1146 23.9959 23.1003 23.9427 23.0726C23.8895 23.045 23.8438 23.0047 23.8098 22.9553C23.8039 22.9468 23.7977 22.9385 23.7912 22.9304L22.0063 20.6844C21.9761 20.6466 21.9537 20.6032 21.9404 20.5567C21.9271 20.5102 21.9231 20.4616 21.9287 20.4135C21.9341 20.3655 21.9489 20.3189 21.9724 20.2767C21.9959 20.2344 22.0275 20.1971 22.0654 20.1672C22.1302 20.1152 22.2108 20.087 22.2939 20.0872C22.4071 20.0872 22.5123 20.1379 22.5825 20.2261L23.7954 21.7524C23.8392 21.8076 23.8942 21.8529 23.9568 21.8853C24.0193 21.9177 24.088 21.9365 24.1584 21.9405C24.2287 21.9447 24.2991 21.9338 24.365 21.9087C24.4308 21.8836 24.4906 21.8448 24.5404 21.7949L28.0942 18.2409C28.1285 18.2065 28.1693 18.1792 28.2142 18.1606C28.259 18.142 28.3072 18.1325 28.3557 18.1327C28.4545 18.1327 28.5473 18.1711 28.6171 18.2409C28.6864 18.3103 28.7252 18.4043 28.7252 18.5023C28.7252 18.6003 28.6864 18.6943 28.6171 18.7637Z" fill="white"/>
</g>
</svg>
