<svg width="16" height="16" viewBox="0 0 16 16" fill="none" xmlns="http://www.w3.org/2000/svg">
<path d="M11.5781 13.2183L13.4714 11.3543L13.0541 10.9363L11.5781 12.3917L10.9414 11.7417L10.5234 12.163L11.5781 13.2183ZM4.51073 5.82099H11.4854V5.15433H4.51006L4.51073 5.82099ZM11.9974 14.7443C11.2547 14.7443 10.6247 14.4854 10.1074 13.9677C9.58962 13.4503 9.33073 12.8203 9.33073 12.0777C9.33073 11.335 9.58962 10.7048 10.1074 10.187C10.6252 9.66921 11.2552 9.41055 11.9974 9.41099C12.7396 9.41144 13.3698 9.6701 13.8881 10.187C14.4063 10.7039 14.665 11.3341 14.6641 12.0777C14.6641 12.8199 14.4054 13.4499 13.8881 13.9677C13.3698 14.4854 12.7396 14.7443 11.9974 14.7443ZM2.66406 13.8463V2.66699H13.3307V7.70699C13.2223 7.66699 13.1147 7.63277 13.0081 7.60433C12.901 7.57588 12.7863 7.55366 12.6641 7.53766V3.33366H3.33073V12.7003H7.56006C7.59028 12.8825 7.6294 13.0608 7.6774 13.235C7.72584 13.4092 7.79317 13.5754 7.8794 13.7337L7.85673 13.7563L7.10006 13.2057L6.20273 13.8463L5.3054 13.2057L4.40806 13.8463L3.51006 13.2057L2.66406 13.8463ZM4.51073 10.8463H7.65006C7.67495 10.7241 7.70562 10.6097 7.74206 10.503C7.77851 10.3963 7.82117 10.2885 7.87006 10.1797H4.51073V10.8463ZM4.51073 8.33366H9.38406C9.60184 8.16166 9.83517 8.01832 10.0841 7.90366C10.333 7.78855 10.599 7.70966 10.8821 7.66699H4.51006L4.51073 8.33366Z" fill="black"/>
</svg>
