<svg width="16" height="16" viewBox="0 0 16 16" fill="none" xmlns="http://www.w3.org/2000/svg">
<path d="M3.33594 13.3337V12.667C3.33594 11.4293 3.8276 10.2423 4.70277 9.36716C5.57794 8.49199 6.76493 8.00033 8.0026 8.00033M8.0026 8.00033C9.24028 8.00033 10.4273 8.49199 11.3024 9.36716C12.1776 10.2423 12.6693 11.4293 12.6693 12.667V13.3337M8.0026 8.00033C8.70985 8.00033 9.38813 7.71937 9.88822 7.21928C10.3883 6.71918 10.6693 6.0409 10.6693 5.33366C10.6693 4.62641 10.3883 3.94814 9.88822 3.44804C9.38813 2.94794 8.70985 2.66699 8.0026 2.66699C7.29536 2.66699 6.61708 2.94794 6.11699 3.44804C5.61689 3.94814 5.33594 4.62641 5.33594 5.33366C5.33594 6.0409 5.61689 6.71918 6.11699 7.21928C6.61708 7.71937 7.29536 8.00033 8.0026 8.00033Z" stroke="black" stroke-width="1.5" stroke-linecap="round" stroke-linejoin="round"/>
</svg>
