<svg width="16" height="16" viewBox="0 0 16 16" fill="none" xmlns="http://www.w3.org/2000/svg">
<g clip-path="url(#clip0_8_155)">
<path d="M13.3349 16C13.6178 16 13.8891 15.8876 14.0891 15.6876C14.2892 15.4875 14.4016 15.2162 14.4016 14.9333V4.3312C14.4008 4.04847 14.2885 3.77745 14.089 3.57707L10.8245 0.312533C10.6241 0.113073 10.3531 0.000758453 10.0704 0L2.66823 0C2.38533 0 2.11402 0.112381 1.91398 0.312419C1.71394 0.512458 1.60156 0.783769 1.60156 1.06667V14.9333C1.60156 15.2162 1.71394 15.4875 1.91398 15.6876C2.11402 15.8876 2.38533 16 2.66823 16H13.3349ZM13.4912 3.73333H11.2016C11.0601 3.73333 10.9245 3.67714 10.8244 3.57712C10.7244 3.4771 10.6682 3.34145 10.6682 3.2V0.9104L13.4912 3.73333ZM2.1349 14.9333V1.06667C2.1349 0.925218 2.19109 0.789562 2.29111 0.689543C2.39113 0.589524 2.52678 0.533333 2.66823 0.533333H10.0704C10.092 0.534144 10.1135 0.536282 10.1349 0.539733V3.2C10.1349 3.4829 10.2473 3.75421 10.4473 3.95425C10.6474 4.15429 10.9187 4.26667 11.2016 4.26667H13.8618C13.8653 4.28803 13.8674 4.30958 13.8682 4.3312V14.9333C13.8682 15.0748 13.812 15.2104 13.712 15.3105C13.612 15.4105 13.4763 15.4667 13.3349 15.4667H2.66823C2.52678 15.4667 2.39113 15.4105 2.29111 15.3105C2.19109 15.2104 2.1349 15.0748 2.1349 14.9333Z" fill="black"/>
<path d="M4.00104 6.93372H12.001C12.0718 6.93372 12.1396 6.90563 12.1896 6.85562C12.2396 6.80561 12.2677 6.73778 12.2677 6.66706C12.2677 6.59633 12.2396 6.5285 12.1896 6.4785C12.1396 6.42849 12.0718 6.40039 12.001 6.40039H4.00104C3.93032 6.40039 3.86249 6.42849 3.81248 6.4785C3.76247 6.5285 3.73438 6.59633 3.73438 6.66706C3.73438 6.73778 3.76247 6.80561 3.81248 6.85562C3.86249 6.90563 3.93032 6.93372 4.00104 6.93372ZM4.00104 9.06706H12.001C12.0718 9.06706 12.1396 9.03896 12.1896 8.98895C12.2396 8.93894 12.2677 8.87112 12.2677 8.80039C12.2677 8.72967 12.2396 8.66184 12.1896 8.61183C12.1396 8.56182 12.0718 8.53372 12.001 8.53372H4.00104C3.93032 8.53372 3.86249 8.56182 3.81248 8.61183C3.76247 8.66184 3.73438 8.72967 3.73438 8.80039C3.73438 8.87112 3.76247 8.93894 3.81248 8.98895C3.86249 9.03896 3.93032 9.06706 4.00104 9.06706ZM4.00104 11.2004H12.001C12.0718 11.2004 12.1396 11.1723 12.1896 11.1223C12.2396 11.0723 12.2677 11.0044 12.2677 10.9337C12.2677 10.863 12.2396 10.7952 12.1896 10.7452C12.1396 10.6952 12.0718 10.6671 12.001 10.6671H4.00104C3.93032 10.6671 3.86249 10.6952 3.81248 10.7452C3.76247 10.7952 3.73438 10.863 3.73438 10.9337C3.73438 11.0044 3.76247 11.0723 3.81248 11.1223C3.86249 11.1723 3.93032 11.2004 4.00104 11.2004ZM4.00104 13.3337H9.33438C9.4051 13.3337 9.47293 13.3056 9.52294 13.2556C9.57295 13.2056 9.60104 13.1378 9.60104 13.0671C9.60104 12.9963 9.57295 12.9285 9.52294 12.8785C9.47293 12.8285 9.4051 12.8004 9.33438 12.8004H4.00104C3.93032 12.8004 3.86249 12.8285 3.81248 12.8785C3.76247 12.9285 3.73438 12.9963 3.73438 13.0671C3.73438 13.1378 3.76247 13.2056 3.81248 13.2556C3.86249 13.3056 3.93032 13.3337 4.00104 13.3337Z" fill="black"/>
</g>
<defs>
<clipPath id="clip0_8_155">
<rect width="16" height="16" fill="white"/>
</clipPath>
</defs>
</svg>
