<svg width="32" height="32" viewBox="0 0 32 32" fill="none" xmlns="http://www.w3.org/2000/svg">
<path d="M14.4177 29.7988C14.3521 29.7986 14.2873 29.7842 14.2278 29.7566L1.13239 23.455C1.05842 23.4192 0.996061 23.3633 0.95251 23.2936C0.908959 23.2239 0.885984 23.1433 0.886232 23.0612V8.99524C0.888503 8.92433 0.908322 8.85509 0.943916 8.79372C0.97951 8.73235 1.02977 8.68077 1.09019 8.64359C1.15188 8.60371 1.22285 8.58049 1.29618 8.57617C1.36951 8.57186 1.44271 8.5866 1.50865 8.61897L14.597 14.8889C14.671 14.9246 14.7333 14.9806 14.7769 15.0503C14.8204 15.12 14.8434 15.2005 14.8432 15.2827V29.3662C14.8409 29.4371 14.8211 29.5064 14.7855 29.5677C14.7499 29.6291 14.6996 29.6807 14.6392 29.7179C14.5745 29.7652 14.4977 29.7932 14.4177 29.7988ZM1.75832 22.7904L13.9711 28.6735V15.5535L1.75832 9.6704V22.7904Z" fill="white"/>
<path d="M14.4177 15.7081C14.3516 15.7085 14.2864 15.6928 14.2278 15.6624L1.13239 9.36437C1.05842 9.32859 0.996061 9.27263 0.95251 9.20295C0.908959 9.13327 0.885984 9.0527 0.886232 8.97052C0.886229 8.88886 0.909345 8.80887 0.952906 8.73979C0.996467 8.67071 1.05869 8.61538 1.13239 8.58019L14.2243 2.29272C14.2826 2.26335 14.347 2.24805 14.4124 2.24805C14.4777 2.24805 14.5422 2.26335 14.6005 2.29272L27.6854 8.59074C27.7587 8.62711 27.8205 8.68325 27.8637 8.75284C27.9068 8.82243 27.9297 8.90269 27.9297 8.98459C27.9297 9.06648 27.9068 9.14675 27.8637 9.21634C27.8205 9.28593 27.7587 9.34207 27.6854 9.37844L14.597 15.6624C14.5415 15.6912 14.4802 15.7068 14.4177 15.7081ZM2.32447 8.97052L14.4177 14.7903L26.4933 8.98459L14.4177 3.16481L2.32447 8.97052Z" fill="white"/>
<path d="M14.4175 29.7987C14.3353 29.7993 14.2547 29.7761 14.1854 29.7319C14.125 29.6947 14.0747 29.6431 14.0391 29.5817C14.0035 29.5203 13.9837 29.4511 13.9814 29.3802V15.2826C13.982 15.2006 14.0053 15.1204 14.0488 15.0509C14.0922 14.9813 14.1541 14.9252 14.2276 14.8888L27.3054 8.58723C27.3713 8.55487 27.4445 8.54012 27.5179 8.54444C27.5912 8.54875 27.6622 8.57197 27.7239 8.61185C27.7843 8.64903 27.8345 8.70061 27.8701 8.76198C27.9057 8.82335 27.9255 8.89259 27.9278 8.9635V15.258C27.9333 15.3183 27.9261 15.3791 27.9067 15.4365C27.8873 15.4939 27.8563 15.5466 27.8154 15.5913C27.7745 15.636 27.7248 15.6717 27.6694 15.6961C27.614 15.7206 27.5541 15.7332 27.4935 15.7332C27.433 15.7332 27.3731 15.7206 27.3177 15.6961C27.2622 15.6717 27.2125 15.636 27.1717 15.5913C27.1308 15.5466 27.0997 15.4939 27.0804 15.4365C27.061 15.3791 27.0538 15.3183 27.0592 15.258V9.67031L14.843 15.5534V28.6734L22.0096 25.2202C22.1159 25.1703 22.2377 25.1647 22.3481 25.2046C22.4586 25.2445 22.5487 25.3266 22.5986 25.4329C22.6485 25.5393 22.6541 25.6611 22.6142 25.7715C22.5743 25.882 22.4922 25.9721 22.3858 26.022L14.5968 29.7565C14.5406 29.7827 14.4795 29.797 14.4175 29.7987Z" fill="white"/>
<path d="M10.3844 21.2183C10.3161 21.2189 10.2486 21.2032 10.1875 21.1727C10.1263 21.1421 10.0733 21.0975 10.0328 21.0425L7.3497 17.41L5.27497 18.5775C5.20899 18.6147 5.13449 18.6343 5.05871 18.6343C4.98292 18.6343 4.90842 18.6147 4.84244 18.5775C4.77677 18.5391 4.72236 18.4842 4.6847 18.4181C4.64704 18.352 4.62746 18.2772 4.62794 18.2012V10.7673C4.62794 10.6857 4.65105 10.6057 4.69461 10.5366C4.73817 10.4675 4.8004 10.4122 4.87409 10.377L12.0759 6.88867C12.1344 6.86007 12.1988 6.84521 12.264 6.84521C12.3292 6.84521 12.3935 6.86007 12.4521 6.88867L17.7937 9.4557C17.8672 9.49148 17.9292 9.54722 17.9725 9.61655C18.0159 9.68588 18.0389 9.76601 18.0389 9.84779C18.0389 9.92956 18.0159 10.0097 17.9725 10.079C17.9292 10.1484 17.8672 10.2041 17.7937 10.2399L10.8205 13.6051V20.7823C10.8202 20.874 10.7912 20.9633 10.7376 21.0377C10.684 21.1121 10.6084 21.1679 10.5216 21.1972C10.4772 21.2111 10.4309 21.2182 10.3844 21.2183ZM7.46926 16.4078C7.5375 16.4078 7.6048 16.4237 7.66583 16.4542C7.72687 16.4847 7.77996 16.529 7.82091 16.5836L9.94838 19.4636V13.3344C9.94845 13.2518 9.97195 13.171 10.0161 13.1013C10.0603 13.0316 10.1234 12.9758 10.198 12.9405L16.6016 9.84603L12.2587 7.76075L5.49299 11.0416V17.4557L7.25124 16.4641C7.31747 16.4259 7.39283 16.4064 7.46926 16.4078ZM17.1642 25.3678C17.0666 25.366 16.9724 25.3316 16.8967 25.2699C16.821 25.2083 16.7682 25.123 16.7467 25.0277C16.7252 24.9325 16.7363 24.8328 16.7782 24.7446C16.8201 24.6565 16.8904 24.5849 16.9778 24.5414L19.471 23.3353C19.5757 23.2865 19.6953 23.2805 19.8043 23.3186C19.9134 23.3567 20.0032 23.4358 20.0548 23.5392C20.0798 23.5906 20.0944 23.6465 20.0976 23.7036C20.1009 23.7607 20.0928 23.8179 20.0739 23.8719C20.0549 23.9259 20.0254 23.9755 19.9871 24.018C19.9488 24.0605 19.9025 24.095 19.8508 24.1194L17.3541 25.3186C17.2951 25.3486 17.2303 25.3654 17.1642 25.3678ZM17.1642 22.6742C17.0666 22.6724 16.9724 22.6379 16.8967 22.5763C16.821 22.5146 16.7682 22.4294 16.7467 22.3341C16.7252 22.2389 16.7363 22.1392 16.7782 22.051C16.8201 21.9628 16.8904 21.8913 16.9778 21.8478L18.6657 21.032C18.7171 20.9937 18.7763 20.9672 18.8391 20.9544C18.9019 20.9416 18.9668 20.9428 19.029 20.958C19.0913 20.9731 19.1495 21.0017 19.1994 21.0419C19.2493 21.082 19.2898 21.1327 19.3179 21.1903C19.3461 21.2479 19.3612 21.3109 19.3622 21.375C19.3631 21.4391 19.35 21.5026 19.3236 21.561C19.2973 21.6194 19.2584 21.6713 19.2097 21.7129C19.161 21.7546 19.1038 21.785 19.042 21.8021L17.3541 22.6144C17.2967 22.6497 17.2315 22.6702 17.1642 22.6742Z" fill="white"/>
<path d="M25.0164 27.3827H24.9883C24.9441 27.3828 24.9001 27.3757 24.8582 27.3616C17.6213 25.0794 18.9892 16.7243 18.9892 16.6399C19.0025 16.5663 19.0343 16.4973 19.0817 16.4395C19.1291 16.3816 19.1904 16.3368 19.2599 16.3093L24.823 14.1221C24.8733 14.1019 24.9271 14.0923 24.9813 14.0939C25.0445 14.0927 25.1076 14.1022 25.1676 14.1221L30.7342 16.3093C30.8038 16.3368 30.8651 16.3816 30.9125 16.4395C30.9599 16.4973 30.9917 16.5663 31.005 16.6399C31.005 16.7243 32.3799 25.0794 25.1465 27.3616C25.1046 27.3755 25.0606 27.3826 25.0164 27.3827ZM19.8226 17.0267C19.6805 18.3334 19.7554 19.6547 20.0441 20.937C20.6912 23.7502 22.365 25.621 25.0164 26.493C27.6643 25.621 29.3382 23.7502 29.9887 20.937C30.2703 19.6535 30.3392 18.3325 30.1927 17.0267L25.0024 14.9906L19.8226 17.0267Z" fill="white"/>
<path d="M24.9919 22.9064C24.9237 22.9066 24.8563 22.8909 24.7952 22.8603C24.7341 22.8298 24.681 22.7853 24.6403 22.7305L23.0966 20.6664C23.0275 20.5731 22.9984 20.4562 23.0155 20.3415C23.0327 20.2268 23.0947 20.1235 23.188 20.0545C23.2812 19.9855 23.3981 19.9563 23.5129 19.9735C23.6276 19.9906 23.7308 20.0527 23.7999 20.1459L24.9955 21.7459L27.6926 18.1978C27.7272 18.1516 27.7706 18.1127 27.8203 18.0833C27.87 18.0539 27.9249 18.0346 27.9821 18.0264C28.0392 18.0182 28.0974 18.0214 28.1533 18.0357C28.2093 18.0501 28.2618 18.0753 28.308 18.1099C28.3542 18.1445 28.3931 18.1879 28.4225 18.2376C28.4519 18.2872 28.4712 18.3422 28.4794 18.3994C28.4876 18.4565 28.4844 18.5147 28.4701 18.5706C28.4557 18.6265 28.4305 18.6791 28.3959 18.7253L25.3471 22.7341C25.3062 22.7893 25.2526 22.8339 25.1907 22.8639C25.1289 22.8939 25.0607 22.9085 24.9919 22.9064Z" fill="white"/>
</svg>
