<svg width="29" height="32" viewBox="0 0 29 32" fill="none" xmlns="http://www.w3.org/2000/svg">
<g id="Group">
<path id="Vector" d="M14.5152 17.4643C14.4561 17.4514 14.3951 17.4493 14.3353 17.4582C13.7343 17.3882 13.2809 16.8797 13.2799 16.2749C13.2799 16.1357 13.2246 16.0022 13.1261 15.9037C13.0277 15.8053 12.8942 15.75 12.755 15.75C12.6158 15.75 12.4822 15.8053 12.3838 15.9037C12.2854 16.0022 12.2301 16.1357 12.2301 16.2749C12.2316 17.2849 12.9072 18.1697 13.8811 18.437V18.9619C13.8811 19.1011 13.9364 19.2346 14.0349 19.333C14.1333 19.4315 14.2668 19.4868 14.406 19.4868C14.5452 19.4868 14.6787 19.4315 14.7772 19.333C14.8756 19.2346 14.9309 19.1011 14.9309 18.9619V18.4687C16.055 18.2334 16.819 17.1865 16.7009 16.0442C16.5825 14.9019 15.6201 14.0338 14.4716 14.0336C13.8135 14.0336 13.2799 13.5 13.2799 12.8418C13.2799 12.1837 13.8135 11.65 14.4716 11.65C15.1298 11.65 15.6634 12.1836 15.6634 12.8418C15.6634 12.981 15.7187 13.1145 15.8171 13.213C15.9156 13.3114 16.0491 13.3667 16.1883 13.3667C16.3275 13.3667 16.461 13.3114 16.5594 13.213C16.6579 13.1145 16.7132 12.981 16.7132 12.8418C16.7117 11.7813 15.9687 10.8665 14.9309 10.6476V10.1699C14.9309 10.0307 14.8756 9.89719 14.7772 9.79876C14.6787 9.70032 14.5452 9.64502 14.406 9.64502C14.2668 9.64502 14.1333 9.70032 14.0349 9.79876C13.9364 9.89719 13.8811 10.0307 13.8811 10.1699V10.6797C12.798 10.9754 12.1009 12.027 12.25 13.1399C12.3992 14.2527 13.3488 15.0833 14.4716 15.0831C15.1211 15.0831 15.6509 15.6031 15.6626 16.2523C15.6747 16.9015 15.1642 17.4407 14.5152 17.4643Z" fill="white"/>
<path id="Vector_2" d="M6.86035 14.5985C6.86035 18.8023 10.2681 22.21 14.4718 22.21C18.6755 22.21 22.0833 18.8023 22.0833 14.5985C22.0833 10.3948 18.6755 6.98706 14.4718 6.98706C10.2701 6.99165 6.86527 10.3968 6.86035 14.5985ZM14.4718 8.03685C18.0958 8.03685 21.0335 10.9745 21.0335 14.5985C21.0335 18.2225 18.0958 21.1602 14.4718 21.1602C10.8478 21.1602 7.91014 18.2225 7.91014 14.5985C7.91427 10.9763 10.8496 8.04098 14.4718 8.03685Z" fill="white"/>
<path id="Vector_3" d="M24.6706 23.504L20.5589 25.4468C20.2799 24.928 19.8691 24.4919 19.3678 24.1826C18.8666 23.8733 18.2926 23.7016 17.7038 23.685L13.908 23.5807C13.3068 23.5635 12.7172 23.4112 12.1829 23.1352L11.7967 22.9351C10.8223 22.4272 9.73954 22.1626 8.64075 22.1638C7.54196 22.1649 6.45975 22.4318 5.48644 22.9417L5.51052 22.0667C5.51243 21.9978 5.50075 21.9292 5.47614 21.8648C5.45153 21.8004 5.41447 21.7415 5.36709 21.6914C5.31971 21.6413 5.26292 21.6011 5.19998 21.573C5.13704 21.5448 5.06917 21.5294 5.00025 21.5275L0.83799 21.413C0.769084 21.4111 0.700479 21.4228 0.636094 21.4474C0.57171 21.472 0.512807 21.5091 0.462752 21.5565C0.412697 21.6039 0.37247 21.6607 0.344372 21.7236C0.316273 21.7865 0.300852 21.8544 0.298991 21.9233L0.0475672 31.057C0.0456452 31.126 0.0573225 31.1946 0.0819317 31.259C0.106541 31.3234 0.1436 31.3823 0.190992 31.4324C0.238383 31.4825 0.295179 31.5228 0.358133 31.5509C0.421088 31.579 0.488967 31.5945 0.557894 31.5964L4.72009 31.7109H4.73446C4.87123 31.711 5.00261 31.6576 5.10065 31.5623C5.19869 31.4669 5.25563 31.337 5.25935 31.2003L5.27136 30.7634L6.35264 30.1844C6.77689 29.956 7.27337 29.9017 7.73698 30.0329L14.1941 31.8452C14.2054 31.8485 14.2166 31.8511 14.2282 31.8537C14.6949 31.9513 15.1704 32.0003 15.6472 32C16.6571 32.0006 17.6551 31.7828 18.5729 31.3616C18.5954 31.3513 18.6172 31.3393 18.6379 31.3256L28.0002 25.27C28.1125 25.1973 28.1929 25.0844 28.2248 24.9544C28.2568 24.8245 28.2379 24.6872 28.1721 24.5707C27.4771 23.3374 25.9354 22.8677 24.6706 23.504ZM1.11146 30.5614L1.33388 22.4768L4.44662 22.5624L4.2242 30.6473L1.11146 30.5614ZM18.1 30.424C16.9597 30.9386 15.6863 31.0807 14.4606 30.8303L8.02095 29.0226C7.29634 28.8178 6.52051 28.9026 5.85727 29.2591L5.30469 29.5552L5.45258 24.1799C6.31225 23.6081 7.3096 23.2775 8.34059 23.2225C9.37158 23.1675 10.3984 23.3902 11.3141 23.8673L11.7003 24.0674C12.3753 24.4159 13.12 24.6082 13.8793 24.6302L17.6753 24.7346C18.7415 24.7653 19.647 25.5244 19.8633 26.5691L14.2092 26.413C13.9193 26.4051 13.6781 26.6337 13.6699 26.9233C13.6661 27.0625 13.7177 27.1975 13.8134 27.2986C13.9091 27.3997 14.0411 27.4587 14.1802 27.4626L20.42 27.6343H20.4346C20.5713 27.6342 20.7025 27.5808 20.8004 27.4854C20.8984 27.3901 20.9552 27.2603 20.959 27.1237C20.9654 26.8956 20.9484 26.6674 20.9082 26.4428L25.1255 24.45C25.1297 24.4482 25.1337 24.4462 25.1379 24.4441C25.43 24.2963 25.7603 24.2414 26.0845 24.2868C26.4086 24.3323 26.7112 24.4758 26.9514 24.6982L18.1 30.424ZM14.9965 5.51137V0.524892C14.9965 0.385682 14.9412 0.252174 14.8428 0.153737C14.7443 0.055301 14.6108 0 14.4716 0C14.3324 0 14.1989 0.055301 14.1005 0.153737C14.002 0.252174 13.9467 0.385682 13.9467 0.524892V5.51137C13.9467 5.65058 14.002 5.78409 14.1005 5.88252C14.1989 5.98096 14.3324 6.03626 14.4716 6.03626C14.6108 6.03626 14.7443 5.98096 14.8428 5.88252C14.9412 5.78409 14.9965 5.65058 14.9965 5.51137ZM18.9332 5.51137V3.14935C18.9332 3.01014 18.8779 2.87664 18.7795 2.7782C18.681 2.67976 18.5475 2.62446 18.4083 2.62446C18.2691 2.62446 18.1356 2.67976 18.0371 2.7782C17.9387 2.87664 17.8834 3.01014 17.8834 3.14935V5.51137C17.8834 5.65058 17.9387 5.78409 18.0371 5.88252C18.1356 5.98096 18.2691 6.03626 18.4083 6.03626C18.5475 6.03626 18.681 5.98096 18.7795 5.88252C18.8779 5.78409 18.9332 5.65058 18.9332 5.51137ZM11.0598 5.51137V3.14935C11.0598 3.01014 11.0045 2.87664 10.9061 2.7782C10.8076 2.67976 10.6741 2.62446 10.5349 2.62446C10.3957 2.62446 10.2622 2.67976 10.1638 2.7782C10.0653 2.87664 10.01 3.01014 10.01 3.14935V5.51137C10.01 5.65058 10.0653 5.78409 10.1638 5.88252C10.2622 5.98096 10.3957 6.03626 10.5349 6.03626C10.6741 6.03626 10.8076 5.98096 10.9061 5.88252C11.0045 5.78409 11.0598 5.65058 11.0598 5.51137Z" fill="white"/>
</g>
</svg>
