<svg width="213" height="29" viewBox="0 0 213 29" fill="none" xmlns="http://www.w3.org/2000/svg">
<path d="M22.5919 0.129376C23.0564 0.129376 23.4125 0.129376 23.8926 0.129376C27.0514 8.1968 30.1328 16.3261 33.3846 24.3781C33.4671 24.3781 33.5497 24.3781 33.6323 24.3781C36.6828 16.3261 39.7332 8.25874 42.7991 0.160346C44.0224 0.160346 45.2147 0.160346 46.4225 0.160346C46.3296 1.15135 36.6673 26.964 35.8621 28.3731C34.2827 28.3731 32.6568 28.3731 30.9535 28.3731C29.6838 25.1213 28.445 21.9006 27.1598 18.6798C25.8901 15.521 24.7442 12.3002 23.2577 9.1878C20.455 15.521 18.1014 21.978 15.438 28.3886C13.7657 28.3886 12.1398 28.3886 10.3591 28.3886C6.90608 19.0514 3.40659 9.6988 0 0.330682C0.774225 0.0364761 2.16783 -0.0254618 3.77822 0.175837C6.75124 8.22777 9.75523 16.3416 12.945 24.44C16.3207 16.3881 19.4021 8.27422 22.5919 0.129376Z" fill="#FFA726"/>
<path d="M91.7609 13.1207C92.086 13.3684 92.3493 13.5543 92.597 13.7401C95.3997 15.8769 96.4991 18.7261 95.7404 22.1482C95.0126 25.4464 92.8912 27.4903 89.5466 28.2026C88.9582 28.3265 88.3388 28.342 87.7349 28.342C77.8093 28.3574 67.8838 28.3265 57.9582 28.3884C53.9787 28.4194 49.5656 25.5702 48.4817 20.29C48.4353 20.0578 48.4817 19.81 48.4817 19.5003C49.674 19.5003 50.7889 19.5003 52.0122 19.5003C52.1051 19.8564 52.198 20.1816 52.3064 20.5223C52.8174 22.2101 53.8393 23.5108 55.4342 24.2695C56.0691 24.5637 56.7969 24.6566 57.4937 24.7805C57.9427 24.8579 58.4228 24.8115 58.8873 24.8115C64.5236 24.827 70.1755 24.8579 75.8118 24.8579C79.8843 24.8579 83.9567 24.796 88.0291 24.8115C89.6085 24.8115 91.5286 23.6347 92.1635 21.6217C92.7209 19.81 92.1015 17.8899 90.584 16.7441C89.6395 16.0163 88.5711 15.7221 87.3942 15.7221C84.8857 15.7221 82.3824 15.7273 79.8843 15.7376C79.4662 15.7376 79.0481 15.7376 78.661 15.7376C78.3823 14.9014 78.3358 13.771 78.5216 12.3465C78.8623 12.3155 79.2494 12.269 79.621 12.269C81.3708 12.2536 83.1205 12.269 84.8703 12.269C85.3348 12.269 85.7993 12.2381 86.2484 12.1607C88.3233 11.8355 89.9027 10.0857 89.9647 8.05726C90.0266 6.01331 88.602 4.15517 86.5581 3.67515C86.0781 3.55128 85.5826 3.48934 85.0871 3.48934C76.2299 3.48934 67.3728 3.48933 58.5157 3.53579C55.5426 3.53579 53.3748 5.0223 52.4457 7.59273C52.2444 8.1192 52.1206 8.67665 51.9502 9.31151C50.727 9.31151 49.5347 9.31151 48.2804 9.31151C48.2804 9.11021 48.234 8.93988 48.2804 8.78504C48.714 7.06626 49.3488 5.44039 50.4018 4.01581C52.2754 1.47636 54.7374 0.0517775 57.9582 0.0517775C67.1096 0.0517775 76.2454 0.0672695 85.3967 0.020816C89.0046 -0.0101529 92.0396 2.29703 93.0151 4.92939C93.8977 7.34497 93.8203 9.69862 92.4886 11.9439C92.2719 12.3 92.0396 12.6716 91.7609 13.1207Z" fill="#FFA726"/>
<path d="M44.812 15.8925C45.2456 14.7312 45.6327 13.6628 46.0353 12.5789C52.3065 12.5789 58.5158 12.5789 64.8489 12.5789C65.0038 13.6318 64.9264 14.6693 64.9109 15.8461C64.5238 15.8925 64.1831 15.9545 63.8425 15.9545C57.8861 15.9648 51.9297 15.97 45.9733 15.97C45.6327 15.97 45.2765 15.9235 44.812 15.8925Z" fill="#FFA726"/>
<path d="M74.8364 21.6526C73.768 21.6526 72.746 21.6526 71.7395 21.6526C71.5072 20.7855 71.4453 7.9643 71.6775 6.64812C72.6995 6.53973 73.7525 6.58618 74.7744 6.69457C75.0377 7.53073 75.0841 20.4448 74.8364 21.6526Z" fill="#FFA726"/>
<path d="M99.5339 28.2955C99.5339 27.1342 99.5339 26.0503 99.5339 24.8115C99.9055 24.796 100.277 24.7806 100.664 24.7806C106.022 24.7806 111.379 24.7651 116.737 24.7806C117.96 24.7806 119.075 24.4709 119.989 23.6347C121.444 22.303 121.94 20.6462 121.29 18.7726C120.67 16.9454 119.277 15.9699 117.403 15.6912C116.907 15.6292 116.396 15.6602 115.901 15.6602C113.145 15.6499 110.394 15.6447 107.648 15.6447C107.292 15.6447 106.951 15.6447 106.486 15.6447C106.378 14.4679 106.393 13.384 106.409 12.1607C106.827 12.1452 107.214 12.0988 107.586 12.0988C109.661 12.0833 111.72 12.0988 113.795 12.0678C114.368 12.0523 114.956 12.0213 115.483 11.851C117.341 11.2781 118.564 9.29607 118.301 7.42245C118.007 5.30107 116.412 3.72165 114.383 3.69068C110.776 3.64423 107.168 3.6752 103.56 3.6752C103.42 3.6752 103.281 3.72165 103.033 3.7681C103.002 4.18618 102.956 4.58878 102.956 5.00686C102.971 9.86899 103.002 14.7156 103.018 19.5778C103.018 20.1817 102.956 20.7701 102.925 21.4669C101.779 21.4669 100.726 21.4669 99.6732 21.4669C99.4255 20.6927 99.3326 1.94094 99.5803 0.191188C99.859 0.160219 100.153 0.113765 100.463 0.113765C105.077 0.0982808 109.676 0.144736 114.291 0.0673137C119.308 -0.0255933 124.046 5.51785 121.073 11.3865C120.871 11.7891 120.655 12.1917 120.407 12.6252C120.995 13.0433 121.537 13.3995 122.033 13.7711C126.833 17.3945 125.997 25.0128 120.469 27.6452C119.586 28.0633 118.673 28.3265 117.682 28.3265C111.86 28.3368 106.037 28.3472 100.215 28.3575C100.045 28.3575 99.859 28.3265 99.5339 28.2955Z" fill="black"/>
<path d="M132.206 17.9364C132.253 19.7172 132.299 21.4669 132.346 23.2167C132.392 24.9509 132.439 26.7007 132.485 28.5278C131.324 28.7601 130.271 28.6517 129.125 28.7136C129.079 28.3885 128.986 28.1252 128.986 27.862C128.862 23.578 128.748 19.2939 128.645 15.0099C128.629 14.7931 128.676 14.5918 128.722 14.2976C129.094 14.2666 129.435 14.2356 129.791 14.2202C131.819 14.1737 133.848 14.1582 135.892 14.0963C138.927 14.0189 141.962 13.8485 144.981 13.8176C147.412 13.7866 149.394 11.5104 149.379 9.51289C149.363 8.66124 149.394 7.79411 149.286 6.95794C149.054 5.11529 147.397 3.58232 145.539 3.59781C141.141 3.65975 136.759 3.81459 132.361 3.92298C132.268 3.92298 132.16 3.98492 131.943 4.03137C131.912 4.38751 131.866 4.75915 131.866 5.13078C131.897 6.66374 131.959 8.1967 131.99 9.74515C132.005 10.1168 131.974 10.5039 131.959 10.9684C130.828 10.9994 129.775 11.0304 128.722 11.0613C128.459 10.3181 128.149 1.97193 128.351 0.51639C128.676 0.500905 129.017 0.454452 129.357 0.438967C134.606 0.299607 139.856 0.206702 145.105 0.00540352C148.821 -0.133957 152.568 2.56034 152.909 6.81858C153.033 8.22767 152.971 9.68321 152.739 11.0768C152.321 13.6627 150.834 15.5673 148.465 16.7441C148.31 16.8216 148.155 16.9145 148.001 17.0074C147.97 17.0229 147.97 17.0538 147.861 17.2087C150.137 20.7391 152.445 24.3006 154.829 27.9859C153.389 28.0323 152.119 28.0633 150.741 28.0943C148.45 24.5948 146.142 21.0798 143.882 17.6268C142.891 17.41 133.368 17.6577 132.206 17.9364Z" fill="black"/>
<path d="M192.798 28.3732C192.798 27.1035 192.798 26.0041 192.798 24.7808C193.231 24.7808 193.618 24.7808 193.99 24.7808C197.644 24.7808 201.283 24.7189 204.922 24.7963C207.616 24.8582 210.032 22.2723 209.258 19.2528C208.808 17.5031 207.198 16.1869 205.232 16.1404C203.234 16.0785 201.237 16.1404 199.239 16.094C198.387 16.0785 197.52 16.0011 196.7 15.7843C193.216 14.9017 190.877 11.8203 190.877 8.22787C190.877 4.61998 193.293 1.47662 196.777 0.594006C197.365 0.439161 197.969 0.346258 198.573 0.346258C202.259 0.315289 205.928 0.330777 209.614 0.330777C209.861 0.330777 210.094 0.361741 210.434 0.39271C210.605 1.53856 210.558 2.65345 210.465 3.87672C209.97 3.8922 209.552 3.92317 209.134 3.92317C205.81 3.92317 202.491 3.91801 199.177 3.90769C198.372 3.90769 197.613 4.00059 196.885 4.38771C195.074 5.34775 194.16 7.36073 194.64 9.37372C195.074 11.1854 196.684 12.4706 198.744 12.5171C200.896 12.5635 203.033 12.5326 205.185 12.5326C207.198 12.5171 208.932 13.2758 210.45 14.561C213.81 17.4102 213.64 22.6284 211.162 25.4931C209.536 27.3822 207.523 28.4042 204.984 28.3732C201.345 28.3267 197.691 28.3732 194.052 28.3732C193.665 28.3732 193.278 28.3732 192.798 28.3732Z" fill="black"/>
<path d="M184.729 0.191162C186.216 0.191162 187.61 0.191158 189.003 0.206643C189.096 0.206643 189.189 0.253104 189.39 0.330526C187.238 2.74611 185.148 5.11523 183.057 7.48435C180.951 9.86897 178.845 12.2381 176.678 14.7001C180.843 19.299 185.117 23.6811 189.421 28.342C187.718 28.4039 186.185 28.4039 184.559 28.3575C180.378 23.8515 176.167 19.33 171.924 14.7621C176.229 9.86897 180.456 5.03781 184.729 0.191162Z" fill="black"/>
<path d="M169.88 28.311C168.735 28.311 167.651 28.311 166.489 28.311C166.489 18.9429 166.489 9.60577 166.489 0.222168C167.62 0.222168 168.719 0.222168 169.787 0.222168C170.004 1.05833 170.097 26.2826 169.88 28.311Z" fill="black"/>
<path d="M161.72 28.3111C160.558 28.3111 159.474 28.3111 158.313 28.3111C158.313 21.0643 158.313 13.8795 158.313 6.58631C159.443 6.44695 160.558 6.50889 161.72 6.58631C161.72 13.864 161.72 21.0488 161.72 28.3111Z" fill="black"/>
<path d="M161.736 0.268799C161.736 1.33723 161.736 2.31275 161.736 3.3657C160.605 3.3657 159.521 3.3657 158.313 3.3657C158.19 2.37469 158.252 1.35271 158.267 0.268799C159.444 0.268799 160.559 0.268799 161.736 0.268799Z" fill="black"/>
</svg>
