<svg width="16" height="16" viewBox="0 0 16 16" fill="none" xmlns="http://www.w3.org/2000/svg">
<path d="M7.77947 1.52138C7.9248 1.49271 8.0748 1.49271 8.2208 1.52138C8.38814 1.55338 8.54014 1.63271 8.68147 1.70604L8.7168 1.72471L14.2301 4.57804C14.3115 4.6202 14.3797 4.68391 14.4273 4.76221C14.475 4.84052 14.5001 4.9304 14.5001 5.02204V10.2874C14.5001 10.476 14.5015 10.676 14.4381 10.862C14.3824 11.0241 14.2926 11.1723 14.1748 11.2967C14.0381 11.4394 13.8595 11.5307 13.6928 11.6167L13.6508 11.6387L8.23014 14.444C8.15906 14.4809 8.08018 14.5001 8.00014 14.5001C7.92009 14.5001 7.84121 14.4809 7.77014 14.444L2.34947 11.6387L2.30747 11.6167C2.1408 11.5307 1.96214 11.4394 1.82547 11.2967C1.70767 11.1723 1.61787 11.0241 1.56214 10.862C1.4988 10.6754 1.49947 10.4754 1.50014 10.2867V5.02204C1.50013 4.9304 1.52531 4.84052 1.57293 4.76221C1.62054 4.68391 1.68876 4.6202 1.77014 4.57804L7.2828 1.72471L7.31814 1.70671C7.46014 1.63271 7.61147 1.55338 7.77947 1.52138ZM7.93014 2.51871C7.86677 2.54863 7.80409 2.57997 7.74214 2.61271L3.11214 5.00938L8.00014 7.40138L12.8881 5.00938L8.25747 2.61271C8.19552 2.57997 8.13283 2.54863 8.06947 2.51871L8.0308 2.50271M7.50014 13.178V8.27004L2.50014 5.82338V10.2394C2.50014 10.364 2.50014 10.4354 2.50347 10.4894L2.50947 10.5414C2.51809 10.5647 2.53098 10.5861 2.54747 10.6047C2.5508 10.6074 2.56147 10.616 2.59014 10.6327C2.63547 10.6607 2.6988 10.6927 2.8088 10.75L7.50014 13.178Z" fill="white"/>
</svg>
