<svg width="16" height="16" viewBox="0 0 16 16" fill="none" xmlns="http://www.w3.org/2000/svg">
<g clip-path="url(#clip0_134_813)">
<path d="M15.4524 4.32991L11.3761 0.0943125C11.3474 0.064494 11.313 0.0407732 11.2749 0.0245684C11.2368 0.00836351 11.1958 7.50855e-06 11.1544 0L5.07911 0C4.39921 0 3.84605 0.552938 3.84605 1.23256V5.53847H1.38396C0.87527 5.53847 0.461426 5.95219 0.461426 6.46075V11.0778C0.461426 11.5863 0.87527 12 1.38396 12H3.84605V14.7696C3.84605 15.448 4.39921 16 5.07911 16H14.3053C14.9852 16 15.5384 15.4483 15.5384 14.7703V4.54328C15.5384 4.46371 15.5075 4.38724 15.4524 4.32991ZM11.2307 0.830656L14.5769 4.30769H11.2307V0.830656ZM1.38396 11.3846C1.21458 11.3846 1.07683 11.247 1.07683 11.0778V6.46075C1.07683 6.29153 1.21461 6.15384 1.38396 6.15384H9.69277C9.86214 6.15384 9.99989 6.29153 9.99989 6.46075V11.0778C9.99989 11.247 9.86211 11.3846 9.69277 11.3846H1.38396ZM14.923 14.7703C14.923 15.109 14.6459 15.3846 14.3053 15.3846H5.07911C4.73852 15.3846 4.46143 15.1087 4.46143 14.7696V12H9.69277C10.2015 12 10.6153 11.5863 10.6153 11.0778V6.46075C10.6153 5.95219 10.2015 5.53847 9.69277 5.53847H4.46143V1.23256C4.46143 0.892219 4.73852 0.615375 5.07911 0.615375H10.6153V4.61538C10.6153 4.78531 10.753 4.92306 10.923 4.92306H14.923V14.7703Z" fill="#434343"/>
<path d="M7.70668 8.73685V9.18216H8.31787V9.51757C8.23734 9.58004 8.14087 9.63316 8.0285 9.6771C7.91612 9.72095 7.80403 9.74288 7.69225 9.74288C7.46628 9.74288 7.28359 9.66451 7.14418 9.50763C7.00475 9.35079 6.93506 9.11548 6.93506 8.80179C6.93506 8.51095 7.00387 8.29154 7.1415 8.1437C7.27912 7.99585 7.4645 7.92191 7.69768 7.92191C7.85153 7.92191 7.97984 7.95954 8.08259 8.0346C8.18534 8.10976 8.25534 8.21223 8.29265 8.34201L8.82265 8.24285C8.76981 8.00007 8.65112 7.80985 8.46659 7.67223C8.28212 7.5346 8.02581 7.46582 7.69768 7.46582C7.44528 7.46582 7.23434 7.50966 7.06487 7.59745C6.84253 7.7116 6.67365 7.87566 6.55828 8.0896C6.4429 8.30354 6.38521 8.54813 6.38521 8.82335C6.38521 9.07698 6.4369 9.31166 6.54025 9.52735C6.64362 9.74313 6.79806 9.90898 7.00359 10.025C7.20912 10.141 7.45009 10.199 7.72656 10.199C7.94412 10.199 8.15893 10.1578 8.37109 10.0754C8.58325 9.99313 8.74515 9.89791 8.85703 9.78976V8.73682L7.70668 8.73685ZM5.88578 7.80932C5.78362 7.67648 5.65681 7.59026 5.50537 7.55054C5.40681 7.52407 5.19528 7.51095 4.87075 7.51095H4.01437V10.1539H4.54803V9.15695H4.896C5.13759 9.15695 5.32209 9.14432 5.44946 9.1191C5.54321 9.09863 5.63546 9.05685 5.72621 8.99379C5.81697 8.93073 5.89178 8.84385 5.95068 8.73326C6.00959 8.62273 6.03903 8.48626 6.03903 8.32401C6.03903 8.11373 5.98793 7.9421 5.88578 7.80932ZM5.42875 8.53679C5.3885 8.59563 5.3329 8.63895 5.26196 8.66657C5.19106 8.69416 5.05043 8.70801 4.84009 8.70801H4.54803V7.95801H4.80584C4.99815 7.95801 5.12615 7.96401 5.18984 7.97601C5.27637 7.9917 5.3479 8.0307 5.40437 8.09323C5.46087 8.1557 5.48912 8.23507 5.48912 8.33123C5.48915 8.40932 5.46903 8.47785 5.42875 8.53679ZM2.91462 7.51095V9.21823C2.91462 9.43216 2.89 9.57307 2.84071 9.64101C2.79143 9.70895 2.70731 9.74285 2.58831 9.74285C2.47053 9.74285 2.38278 9.69541 2.32509 9.60045C2.28662 9.53791 2.2644 9.43098 2.25837 9.27954L1.75537 9.33723C1.75656 9.6197 1.8275 9.83391 1.96812 9.97991C2.10875 10.126 2.30946 10.199 2.57028 10.199C2.79262 10.199 2.97171 10.1524 3.10753 10.0593C3.24334 9.96613 3.33709 9.8426 3.38878 9.68876C3.42725 9.57101 3.44646 9.4027 3.44646 9.18401V7.51095H2.91462Z" fill="#434343"/>
</g>
<defs>
<clipPath id="clip0_134_813">
<rect width="16" height="16" fill="white"/>
</clipPath>
</defs>
</svg>
