<svg width="16" height="16" viewBox="0 0 16 16" fill="none" xmlns="http://www.w3.org/2000/svg">
<g clip-path="url(#clip0_134_803)">
<path d="M15.4524 4.32991L11.3761 0.0943125C11.3474 0.064494 11.313 0.0407732 11.2749 0.0245684C11.2368 0.00836351 11.1958 7.50855e-06 11.1544 0L5.07911 0C4.39921 0 3.84605 0.552938 3.84605 1.23256V5.53847H1.38396C0.87527 5.53847 0.461426 5.95219 0.461426 6.46075V11.0778C0.461426 11.5863 0.87527 12 1.38396 12H3.84605V14.7696C3.84605 15.448 4.39921 16 5.07911 16H14.3053C14.9852 16 15.5384 15.4483 15.5384 14.7703V4.54328C15.5384 4.46371 15.5075 4.38724 15.4524 4.32991ZM11.2307 0.830656L14.5769 4.30769H11.2307V0.830656ZM1.38396 11.3846C1.21458 11.3846 1.07683 11.247 1.07683 11.0778V6.46075C1.07683 6.29153 1.21461 6.15384 1.38396 6.15384H9.69277C9.86214 6.15384 9.99989 6.29153 9.99989 6.46075V11.0778C9.99989 11.247 9.86211 11.3846 9.69277 11.3846H1.38396ZM14.923 14.7703C14.923 15.109 14.6459 15.3846 14.3053 15.3846H5.07911C4.73852 15.3846 4.46143 15.1087 4.46143 14.7696V12H9.69277C10.2015 12 10.6153 11.5863 10.6153 11.0778V6.46075C10.6153 5.95219 10.2015 5.53847 9.69277 5.53847H4.46143V1.23256C4.46143 0.892219 4.73852 0.615375 5.07911 0.615375H10.6153V4.61538C10.6153 4.78531 10.753 4.92306 10.923 4.92306H14.923V14.7703Z" fill="#434343"/>
<path d="M3.83234 7.80932C3.73019 7.67648 3.60337 7.59026 3.45194 7.55054C3.35337 7.52407 3.14184 7.51095 2.81731 7.51095H1.96094V10.1539H2.49459V9.15695H2.84256C3.08416 9.15695 3.26866 9.14432 3.39603 9.1191C3.48978 9.09863 3.58203 9.05685 3.67278 8.99379C3.76353 8.93073 3.83834 8.84385 3.89725 8.73326C3.95616 8.62273 3.98559 8.48626 3.98559 8.32401C3.98556 8.11373 3.9345 7.9421 3.83234 7.80932ZM3.37531 8.53679C3.33506 8.59563 3.27947 8.63895 3.20853 8.66657C3.13762 8.69416 2.997 8.70801 2.78666 8.70801H2.49459V7.95801H2.75241C2.94472 7.95801 3.07272 7.96401 3.13644 7.97601C3.22297 7.9917 3.2945 8.0307 3.35097 8.09323C3.40747 8.1557 3.43572 8.23507 3.43572 8.33123C3.43569 8.40935 3.41556 8.47785 3.37531 8.53679ZM6.03003 7.51095V9.27595L4.94831 7.51095H4.42909V10.1539H4.92487V8.43041L5.99038 10.1539H6.52584V7.51095H6.03003ZM8.31969 8.73685V9.18216H8.93087V9.51757C8.85034 9.58004 8.75388 9.63316 8.6415 9.6771C8.52913 9.72095 8.41703 9.74288 8.30525 9.74288C8.07928 9.74288 7.89659 9.66451 7.75719 9.50763C7.61775 9.35079 7.54806 9.11548 7.54806 8.80179C7.54806 8.51095 7.61687 8.29154 7.7545 8.1437C7.89213 7.99585 8.07753 7.92191 8.31069 7.92191C8.46453 7.92191 8.59281 7.95954 8.69559 8.0346C8.79834 8.10976 8.86838 8.21223 8.90563 8.34201L9.43569 8.24285C9.38281 8.00007 9.26413 7.80985 9.07963 7.67223C8.89512 7.5346 8.63881 7.46582 8.31069 7.46582C8.05828 7.46582 7.84734 7.50966 7.67788 7.59745C7.45553 7.7116 7.28666 7.87566 7.17128 8.0896C7.05591 8.30354 6.99819 8.54813 6.99819 8.82335C6.99819 9.07698 7.04987 9.31166 7.15322 9.52735C7.25659 9.74313 7.41103 9.90898 7.61656 10.025C7.82209 10.141 8.06309 10.199 8.33953 10.199C8.55706 10.199 8.77191 10.1578 8.98406 10.0754C9.19619 9.99313 9.35816 9.89791 9.46994 9.78976V8.73682L8.31969 8.73685Z" fill="#434343"/>
</g>
<defs>
<clipPath id="clip0_134_803">
<rect width="16" height="16" fill="white"/>
</clipPath>
</defs>
</svg>
