<svg width="16" height="16" viewBox="0 0 16 16" fill="none" xmlns="http://www.w3.org/2000/svg">
<g clip-path="url(#clip0_134_824)">
<path d="M15.675 3.63063L12.0663 0.273125C11.8774 0.0975062 11.6291 -8.13006e-05 11.3713 5.08215e-08L3.84 5.08215e-08C3.56972 0.000661302 3.31071 0.10841 3.1197 0.299649C2.9287 0.490887 2.82127 0.750027 2.82094 1.02031V5.86406H1.02C0.749665 5.86431 0.490463 5.97177 0.299247 6.16287C0.108032 6.35396 0.000415347 6.6131 1.72271e-06 6.88344V10.4147C-0.000244707 10.5488 0.0259497 10.6817 0.0770877 10.8057C0.128226 10.9298 0.203304 11.0425 0.298032 11.1375C0.39276 11.2325 0.50528 11.3079 0.62916 11.3593C0.75304 11.4108 0.885851 11.4374 1.02 11.4375H2.82094V14.9797C2.82127 15.2502 2.92887 15.5095 3.12015 15.7008C3.31142 15.8921 3.57075 15.9997 3.84125 16H14.98C15.2505 15.9997 15.5098 15.8921 15.701 15.7008C15.8922 15.5095 15.9998 15.2502 16 14.9797V4.3775C15.9998 4.2374 15.9708 4.09884 15.9149 3.97037C15.859 3.84191 15.7774 3.72628 15.675 3.63063ZM15.2394 3.8125H12.4928C12.3362 3.81233 12.1861 3.75006 12.0754 3.63933C11.9646 3.5286 11.9024 3.37847 11.9022 3.22187V0.7075L15.2394 3.8125ZM0.429377 10.4163V6.885C0.429542 6.72841 0.491822 6.57828 0.602549 6.46755C0.713277 6.35682 0.863409 6.29454 1.02 6.29437H11.125C11.2816 6.29454 11.4317 6.35682 11.5425 6.46755C11.6532 6.57828 11.7155 6.72841 11.7156 6.885V10.4163C11.7155 10.5728 11.6532 10.723 11.5425 10.8337C11.4317 10.9444 11.2816 11.0067 11.125 11.0069H1.02C0.863409 11.0067 0.713277 10.9444 0.602549 10.8337C0.491822 10.723 0.429542 10.5728 0.429377 10.4163ZM15.5706 14.9788C15.5705 15.1353 15.5082 15.2855 15.3975 15.3962C15.2867 15.5069 15.1366 15.5692 14.98 15.5694H3.84125C3.68463 15.5693 3.53445 15.507 3.42371 15.3963C3.31296 15.2855 3.25071 15.1354 3.25063 14.9788V11.4375H11.125C11.3954 11.4373 11.6547 11.3297 11.846 11.1385C12.0372 10.9472 12.1448 10.6879 12.145 10.4175V6.88625C12.1452 6.7521 12.1191 6.61922 12.0679 6.49519C12.0168 6.37117 11.9417 6.25845 11.847 6.16346C11.7522 6.06847 11.6397 5.99308 11.5158 5.9416C11.392 5.89012 11.2592 5.86356 11.125 5.86344H3.25V1.01969C3.25008 0.863069 3.31234 0.71289 3.42308 0.602144C3.53383 0.491398 3.68401 0.429145 3.84063 0.429063H11.3719C11.4059 0.429091 11.4399 0.432124 11.4734 0.438125V3.22094C11.4737 3.49138 11.5812 3.75068 11.7725 3.94191C11.9637 4.13315 12.223 4.24069 12.4934 4.24094H15.5559C15.5669 4.28543 15.5726 4.33106 15.5728 4.37687L15.5706 14.9788ZM3.76031 7.375H2.81438C2.78617 7.37496 2.75824 7.38048 2.73217 7.39126C2.7061 7.40203 2.68242 7.41785 2.66248 7.43779C2.64253 7.45773 2.62672 7.48142 2.61595 7.50748C2.60517 7.53355 2.59965 7.56148 2.59969 7.58969V9.7125C2.59969 9.76944 2.62231 9.82405 2.66257 9.86431C2.70283 9.90457 2.75744 9.92719 2.81438 9.92719C2.87132 9.92719 2.92592 9.90457 2.96618 9.86431C3.00645 9.82405 3.02906 9.76944 3.02906 9.7125V9.025H3.76031C3.97638 9.02079 4.18217 8.93201 4.33349 8.77772C4.48481 8.62343 4.56957 8.41595 4.56957 8.19984C4.56957 7.98374 4.48481 7.77625 4.33349 7.62197C4.18217 7.46768 3.97638 7.37889 3.76031 7.37469V7.375ZM3.76031 8.59562H3.02906V7.80312H3.76031C3.86524 7.80312 3.96587 7.84481 4.04006 7.919C4.11426 7.9932 4.15594 8.09382 4.15594 8.19875C4.15594 8.30368 4.11426 8.40431 4.04006 8.4785C3.96587 8.55269 3.86524 8.59437 3.76031 8.59437V8.59562ZM8.47719 7.375H7.775C7.71806 7.375 7.66346 7.39762 7.62319 7.43788C7.58293 7.47814 7.56031 7.53275 7.56031 7.58969V9.7125C7.5604 9.76941 7.58304 9.82397 7.62329 9.86422C7.66353 9.90446 7.71809 9.9271 7.775 9.92719H8.47719C8.76062 9.92686 9.03235 9.81412 9.23277 9.6137C9.43318 9.41328 9.54592 9.14156 9.54625 8.85812V8.4425C9.54559 8.15931 9.4327 7.88794 9.23231 7.68784C9.03192 7.48775 8.76038 7.37525 8.47719 7.375ZM9.11656 8.85812C9.1164 9.02765 9.04898 9.19018 8.92911 9.31005C8.80924 9.42992 8.64671 9.49733 8.47719 9.4975H7.99V7.80312H8.47719C8.64669 7.80337 8.80917 7.87081 8.92902 7.99067C9.04887 8.11052 9.11632 8.273 9.11656 8.4425V8.85812ZM7.06563 9.18031C7.0656 9.25985 7.04933 9.33854 7.01781 9.41156C6.88906 9.71875 6.50906 9.92594 6.0725 9.92594C5.63594 9.92594 5.25688 9.71875 5.1275 9.41C5.116 9.3839 5.10981 9.35577 5.10931 9.32725C5.1088 9.29873 5.11398 9.2704 5.12454 9.24391C5.13511 9.21741 5.15084 9.19329 5.17084 9.17295C5.19083 9.15261 5.21467 9.13645 5.24098 9.12542C5.26728 9.1144 5.29552 9.10873 5.32404 9.10874C5.35257 9.10875 5.3808 9.11444 5.4071 9.12549C5.43339 9.13653 5.45723 9.15271 5.4772 9.17307C5.49718 9.19343 5.5129 9.21756 5.52344 9.24406C5.57469 9.36625 5.78469 9.49625 6.0725 9.49625C6.36031 9.49625 6.5725 9.36625 6.62219 9.24406C6.63114 9.22442 6.63593 9.20314 6.63625 9.18156C6.63625 9.08094 6.53188 8.97719 6.37031 8.91687C6.35406 8.91094 6.28406 8.88937 6.06313 8.86625L6.04563 8.86375H6.03563C5.83781 8.84281 5.70813 8.81906 5.62719 8.78938C5.28969 8.66438 5.08 8.40813 5.08 8.12156C5.08014 8.04201 5.09651 7.96332 5.12813 7.89031C5.25688 7.58313 5.63656 7.37594 6.0725 7.37594C6.50844 7.37594 6.88906 7.58313 7.01844 7.89156C7.03058 7.91778 7.03732 7.94618 7.03824 7.97506C7.03917 8.00394 7.03426 8.03271 7.02381 8.05965C7.01337 8.08659 6.9976 8.11115 6.97745 8.13186C6.9573 8.15257 6.93318 8.16901 6.90653 8.18019C6.87989 8.19137 6.85126 8.19706 6.82237 8.19693C6.79347 8.1968 6.7649 8.19084 6.73836 8.17942C6.71182 8.168 6.68785 8.15134 6.66789 8.13045C6.64793 8.10955 6.63239 8.08485 6.62219 8.05781C6.57094 7.93531 6.36094 7.80531 6.0725 7.80531C5.78406 7.80531 5.57469 7.93531 5.52344 8.05781C5.51465 8.07751 5.50987 8.09875 5.50938 8.12031C5.50938 8.22125 5.61438 8.325 5.77656 8.38531C5.7925 8.39125 5.86156 8.41219 6.08094 8.43563L6.09906 8.43781H6.10844C6.3075 8.45875 6.43844 8.48281 6.52031 8.51313C6.85688 8.63875 7.06563 8.89406 7.06563 9.18031Z" fill="#434343"/>
</g>
<defs>
<clipPath id="clip0_134_824">
<rect width="16" height="16" fill="white"/>
</clipPath>
</defs>
</svg>
