<svg width="16" height="16" viewBox="0 0 16 16" fill="none" xmlns="http://www.w3.org/2000/svg">
<g clip-path="url(#clip0_134_834)">
<path d="M10.8475 0.465344C10.8204 0.436822 10.7878 0.414106 10.7516 0.398576C10.7155 0.383045 10.6765 0.375024 10.6372 0.375H4.67406C3.71796 0.375 2.94 1.153 2.94 2.10884V7.25775H1.24681C0.934902 7.25775 0.681152 7.51175 0.681152 7.82312V12.8864C0.681152 13.1978 0.934934 13.4518 1.24681 13.4518H2.94V13.8911C2.94 14.847 3.71796 15.625 4.67406 15.625H13.5851C14.5412 15.625 15.3192 14.847 15.3192 13.8911V5.32631C15.3191 5.25254 15.2909 5.18157 15.2404 5.12781L10.8475 0.465344ZM10.9305 1.3965L14.3591 5.03562H11.6048C11.2329 5.03562 10.9305 4.73269 10.9305 4.36109V1.3965ZM1.24681 7.83537L12.4053 7.82312V12.8742L1.25925 12.8864L1.24681 7.83537ZM13.5851 15.0474H4.67406C4.03671 15.0474 3.51812 14.529 3.51812 13.8912V13.4518H12.4176C12.7297 13.4518 12.9835 13.1978 12.9835 12.8864V7.82312C12.9835 7.51175 12.7297 7.25775 12.4176 7.25775H3.51812V2.10884C3.51812 1.471 4.03675 0.952625 4.67406 0.952625H10.3524V4.36106C10.3524 5.05159 10.9142 5.61325 11.6048 5.61325H14.7411V13.8912C14.7411 14.529 14.2225 15.0474 13.5851 15.0474Z" fill="#434343"/>
<path d="M5.54221 8.86182H3.86384C3.81493 8.86182 3.78015 8.88254 3.75849 8.92204C3.73672 8.96319 3.72542 9.00907 3.72559 9.05563C3.72559 9.10738 3.73787 9.15347 3.76231 9.19394C3.78678 9.23438 3.82062 9.25507 3.86384 9.25507H4.49043V11.6785C4.49043 11.7237 4.51303 11.7594 4.55718 11.7839C4.60143 11.8074 4.65128 11.8196 4.70493 11.8196C4.75859 11.8196 4.80843 11.8074 4.85259 11.7839C4.89684 11.7594 4.91943 11.7237 4.91943 11.6785V9.25507H5.54221C5.59112 9.25507 5.6269 9.23438 5.64949 9.19394C5.67303 9.15347 5.68428 9.10644 5.68428 9.05188C5.68428 9.00672 5.67303 8.96344 5.65137 8.92207C5.63065 8.8825 5.59399 8.86182 5.54221 8.86182ZM7.58934 8.86182H5.91096C5.86206 8.86182 5.82728 8.88254 5.80562 8.92204C5.78384 8.96319 5.77254 9.00907 5.77271 9.05563C5.77271 9.10738 5.7849 9.15347 5.80943 9.19394C5.8339 9.23438 5.86774 9.25507 5.91096 9.25507H6.53756V11.6785C6.53756 11.7237 6.56015 11.7594 6.60431 11.7839C6.64856 11.8074 6.6984 11.8196 6.75206 11.8196C6.80571 11.8196 6.85556 11.8074 6.89981 11.7839C6.94396 11.7594 6.96656 11.7237 6.96656 11.6785V9.25507H7.58934C7.63824 9.25507 7.67403 9.23438 7.69656 9.19394C7.72009 9.15347 7.73143 9.10644 7.73143 9.05188C7.73143 9.00672 7.72009 8.96344 7.69853 8.92207C7.67778 8.8825 7.64106 8.86182 7.58934 8.86182ZM9.6534 8.86182H8.23284C8.18671 8.86182 8.14349 8.87404 8.10303 8.8985C8.06249 8.92204 8.04278 8.95775 8.04278 9.00294V11.6785C8.04278 11.7264 8.06537 11.7622 8.10953 11.7857C8.15378 11.8083 8.20268 11.8196 8.25728 11.8196C8.31084 11.8196 8.35984 11.8083 8.40493 11.7857C8.44918 11.7622 8.47178 11.7264 8.47178 11.6785V10.5082H9.09828C9.14718 10.5082 9.18206 10.4903 9.20371 10.4536C9.22528 10.4178 9.23662 10.3802 9.23662 10.3426C9.23662 10.2974 9.22434 10.256 9.20174 10.2212C9.17915 10.1864 9.14437 10.1694 9.09824 10.1694H8.47174V9.24185H9.65334C9.69853 9.24185 9.73331 9.22304 9.7559 9.1835C9.77943 9.14397 9.79068 9.09885 9.79068 9.04804C9.79068 9.00475 9.77943 8.96338 9.75778 8.92197C9.73615 8.8825 9.7014 8.86182 9.6534 8.86182Z" fill="#434343"/>
</g>
<defs>
<clipPath id="clip0_134_834">
<rect width="16" height="16" fill="white"/>
</clipPath>
</defs>
</svg>
